<mxfile host="app.diagrams.net" modified="2024-05-30T18:14:53.023Z" agent="Mozilla/5.0 (Windows NT 10.0; Win64; x64) AppleWebKit/537.36 (KHTML, like Gecko) Chrome/125.0.0.0 Safari/537.36 Edg/125.0.0.0" etag="zCesUaUgNmmbeWw7ILcV" version="24.2.3" type="device">
  <diagram id="R2lEEEUBdFMjLlhIrx00" name="Page-1">
    <mxGraphModel dx="1081" dy="1717" grid="1" gridSize="10" guides="1" tooltips="1" connect="1" arrows="1" fold="1" page="1" pageScale="1" pageWidth="850" pageHeight="1100" math="0" shadow="0" extFonts="Permanent Marker^https://fonts.googleapis.com/css?family=Permanent+Marker">
      <root>
        <mxCell id="0" />
        <mxCell id="1" parent="0" />
        <mxCell id="jrB7JTmj7zLujSxNhgp--1" value="Patente" style="text;html=1;align=center;verticalAlign=middle;resizable=0;points=[];autosize=1;strokeColor=none;fillColor=none;" parent="1" vertex="1">
          <mxGeometry x="524.9200000000001" y="-408" width="60" height="30" as="geometry" />
        </mxCell>
        <mxCell id="jrB7JTmj7zLujSxNhgp--2" value="&lt;u&gt;id_patente&lt;/u&gt;" style="text;html=1;align=center;verticalAlign=middle;resizable=0;points=[];autosize=1;strokeColor=default;fillColor=none;" parent="1" vertex="1">
          <mxGeometry x="524.9200000000001" y="-378" width="80" height="30" as="geometry" />
        </mxCell>
        <mxCell id="jrB7JTmj7zLujSxNhgp--4" value="data_registo" style="text;html=1;align=center;verticalAlign=middle;resizable=0;points=[];autosize=1;strokeColor=default;fillColor=none;" parent="1" vertex="1">
          <mxGeometry x="604.9200000000001" y="-378" width="90" height="30" as="geometry" />
        </mxCell>
        <mxCell id="jrB7JTmj7zLujSxNhgp--5" value="data_venc" style="text;html=1;align=center;verticalAlign=middle;resizable=0;points=[];autosize=1;strokeColor=default;fillColor=none;" parent="1" vertex="1">
          <mxGeometry x="694.9200000000001" y="-378" width="80" height="30" as="geometry" />
        </mxCell>
        <mxCell id="jrB7JTmj7zLujSxNhgp--6" value="Pat_Locs" style="text;html=1;align=center;verticalAlign=middle;resizable=0;points=[];autosize=1;strokeColor=none;fillColor=none;" parent="1" vertex="1">
          <mxGeometry x="845.95" y="-408" width="70" height="30" as="geometry" />
        </mxCell>
        <mxCell id="jrB7JTmj7zLujSxNhgp--13" value="" style="edgeStyle=orthogonalEdgeStyle;rounded=0;orthogonalLoop=1;jettySize=auto;html=1;" parent="1" source="jrB7JTmj7zLujSxNhgp--7" edge="1">
          <mxGeometry relative="1" as="geometry">
            <mxPoint x="564.95" y="-348" as="targetPoint" />
            <Array as="points">
              <mxPoint x="875.95" y="-338" />
              <mxPoint x="564.95" y="-338" />
            </Array>
          </mxGeometry>
        </mxCell>
        <mxCell id="jrB7JTmj7zLujSxNhgp--7" value="&lt;u&gt;patente&lt;/u&gt;" style="text;html=1;align=center;verticalAlign=middle;resizable=0;points=[];autosize=1;strokeColor=default;fillColor=none;" parent="1" vertex="1">
          <mxGeometry x="845.95" y="-378" width="60" height="30" as="geometry" />
        </mxCell>
        <mxCell id="jrB7JTmj7zLujSxNhgp--8" value="&lt;u&gt;Plocs&lt;/u&gt;" style="text;html=1;align=center;verticalAlign=middle;resizable=0;points=[];autosize=1;strokeColor=default;fillColor=none;" parent="1" vertex="1">
          <mxGeometry x="905.95" y="-378" width="50" height="30" as="geometry" />
        </mxCell>
        <mxCell id="jrB7JTmj7zLujSxNhgp--9" value="Marca" style="text;html=1;align=center;verticalAlign=middle;resizable=0;points=[];autosize=1;strokeColor=none;fillColor=none;" parent="1" vertex="1">
          <mxGeometry x="975.95" y="-409" width="60" height="30" as="geometry" />
        </mxCell>
        <mxCell id="jrB7JTmj7zLujSxNhgp--15" value="" style="edgeStyle=orthogonalEdgeStyle;rounded=0;orthogonalLoop=1;jettySize=auto;html=1;" parent="1" source="jrB7JTmj7zLujSxNhgp--10" edge="1">
          <mxGeometry relative="1" as="geometry">
            <mxPoint x="564.95" y="-348" as="targetPoint" />
            <Array as="points">
              <mxPoint x="1010.95" y="-338" />
            </Array>
          </mxGeometry>
        </mxCell>
        <mxCell id="jrB7JTmj7zLujSxNhgp--10" value="&lt;u&gt;patente&lt;/u&gt;" style="text;html=1;align=center;verticalAlign=middle;resizable=0;points=[];autosize=1;strokeColor=default;fillColor=none;" parent="1" vertex="1">
          <mxGeometry x="980.95" y="-379" width="60" height="30" as="geometry" />
        </mxCell>
        <mxCell id="jrB7JTmj7zLujSxNhgp--11" value="nome" style="text;html=1;align=center;verticalAlign=middle;resizable=0;points=[];autosize=1;strokeColor=default;fillColor=none;" parent="1" vertex="1">
          <mxGeometry x="1040.95" y="-379" width="50" height="30" as="geometry" />
        </mxCell>
        <mxCell id="jrB7JTmj7zLujSxNhgp--16" value="Fornecedor" style="text;html=1;align=center;verticalAlign=middle;resizable=0;points=[];autosize=1;strokeColor=none;fillColor=none;" parent="1" vertex="1">
          <mxGeometry x="524.9200000000001" y="-329" width="80" height="30" as="geometry" />
        </mxCell>
        <mxCell id="jrB7JTmj7zLujSxNhgp--17" value="&lt;u&gt;id_fornecedor&lt;/u&gt;" style="text;html=1;align=center;verticalAlign=middle;resizable=0;points=[];autosize=1;strokeColor=default;fillColor=none;" parent="1" vertex="1">
          <mxGeometry x="524.9200000000001" y="-299" width="100" height="30" as="geometry" />
        </mxCell>
        <mxCell id="jrB7JTmj7zLujSxNhgp--18" value="telefone" style="text;html=1;align=center;verticalAlign=middle;resizable=0;points=[];autosize=1;strokeColor=default;fillColor=none;" parent="1" vertex="1">
          <mxGeometry x="624.9200000000001" y="-299" width="70" height="30" as="geometry" />
        </mxCell>
        <mxCell id="jrB7JTmj7zLujSxNhgp--19" value="rua" style="text;html=1;align=center;verticalAlign=middle;resizable=0;points=[];autosize=1;strokeColor=default;fillColor=none;" parent="1" vertex="1">
          <mxGeometry x="694.9200000000001" y="-299" width="40" height="30" as="geometry" />
        </mxCell>
        <mxCell id="jrB7JTmj7zLujSxNhgp--20" value="cod_postal" style="text;html=1;align=center;verticalAlign=middle;resizable=0;points=[];autosize=1;strokeColor=default;fillColor=none;" parent="1" vertex="1">
          <mxGeometry x="734.9200000000001" y="-299" width="80" height="30" as="geometry" />
        </mxCell>
        <mxCell id="jrB7JTmj7zLujSxNhgp--21" value="localidade" style="text;html=1;align=center;verticalAlign=middle;resizable=0;points=[];autosize=1;strokeColor=default;fillColor=none;" parent="1" vertex="1">
          <mxGeometry x="814.9200000000001" y="-299" width="80" height="30" as="geometry" />
        </mxCell>
        <mxCell id="jrB7JTmj7zLujSxNhgp--23" value="Produto" style="text;html=1;align=center;verticalAlign=middle;resizable=0;points=[];autosize=1;strokeColor=none;fillColor=none;" parent="1" vertex="1">
          <mxGeometry x="524.9200000000001" y="-252" width="70" height="30" as="geometry" />
        </mxCell>
        <mxCell id="jrB7JTmj7zLujSxNhgp--24" value="&lt;u&gt;id_produto&lt;/u&gt;" style="text;html=1;align=center;verticalAlign=middle;resizable=0;points=[];autosize=1;strokeColor=default;fillColor=none;" parent="1" vertex="1">
          <mxGeometry x="524.9200000000001" y="-222" width="80" height="30" as="geometry" />
        </mxCell>
        <mxCell id="jrB7JTmj7zLujSxNhgp--25" value="nome" style="text;html=1;align=center;verticalAlign=middle;resizable=0;points=[];autosize=1;strokeColor=default;fillColor=none;" parent="1" vertex="1">
          <mxGeometry x="604.9200000000001" y="-222" width="50" height="30" as="geometry" />
        </mxCell>
        <mxCell id="jrB7JTmj7zLujSxNhgp--26" value="preco" style="text;html=1;align=center;verticalAlign=middle;resizable=0;points=[];autosize=1;strokeColor=default;fillColor=none;" parent="1" vertex="1">
          <mxGeometry x="654.9200000000001" y="-222" width="50" height="30" as="geometry" />
        </mxCell>
        <mxCell id="jrB7JTmj7zLujSxNhgp--29" value="" style="edgeStyle=orthogonalEdgeStyle;rounded=0;orthogonalLoop=1;jettySize=auto;html=1;entryX=0.489;entryY=1.035;entryDx=0;entryDy=0;entryPerimeter=0;" parent="1" source="jrB7JTmj7zLujSxNhgp--27" target="jrB7JTmj7zLujSxNhgp--10" edge="1">
          <mxGeometry relative="1" as="geometry">
            <mxPoint x="1014.9500000000005" y="-299" as="targetPoint" />
          </mxGeometry>
        </mxCell>
        <mxCell id="jrB7JTmj7zLujSxNhgp--27" value="marca" style="text;html=1;align=center;verticalAlign=middle;resizable=0;points=[];autosize=1;strokeColor=default;fillColor=none;" parent="1" vertex="1">
          <mxGeometry x="704.9200000000001" y="-222" width="60" height="30" as="geometry" />
        </mxCell>
        <mxCell id="jrB7JTmj7zLujSxNhgp--30" value="Stock_Fornecido" style="text;html=1;align=center;verticalAlign=middle;resizable=0;points=[];autosize=1;strokeColor=none;fillColor=none;" parent="1" vertex="1">
          <mxGeometry x="524.9200000000001" y="-179" width="110" height="30" as="geometry" />
        </mxCell>
        <mxCell id="jrB7JTmj7zLujSxNhgp--35" value="" style="edgeStyle=orthogonalEdgeStyle;rounded=0;orthogonalLoop=1;jettySize=auto;html=1;entryX=0;entryY=0.333;entryDx=0;entryDy=0;entryPerimeter=0;" parent="1" source="jrB7JTmj7zLujSxNhgp--31" target="jrB7JTmj7zLujSxNhgp--17" edge="1">
          <mxGeometry relative="1" as="geometry">
            <mxPoint x="444.9200000000001" y="-134" as="targetPoint" />
            <Array as="points">
              <mxPoint x="504.95000000000005" y="-134" />
              <mxPoint x="504.95000000000005" y="-289" />
            </Array>
          </mxGeometry>
        </mxCell>
        <mxCell id="jrB7JTmj7zLujSxNhgp--31" value="&lt;u&gt;fornecedor&lt;/u&gt;" style="text;html=1;align=center;verticalAlign=middle;resizable=0;points=[];autosize=1;strokeColor=default;fillColor=none;" parent="1" vertex="1">
          <mxGeometry x="524.9200000000001" y="-149" width="80" height="30" as="geometry" />
        </mxCell>
        <mxCell id="jrB7JTmj7zLujSxNhgp--37" value="" style="edgeStyle=orthogonalEdgeStyle;rounded=0;orthogonalLoop=1;jettySize=auto;html=1;entryX=0.391;entryY=1.008;entryDx=0;entryDy=0;entryPerimeter=0;" parent="1" source="jrB7JTmj7zLujSxNhgp--32" target="jrB7JTmj7zLujSxNhgp--24" edge="1">
          <mxGeometry relative="1" as="geometry">
            <mxPoint x="634.9200000000001" y="-39" as="targetPoint" />
          </mxGeometry>
        </mxCell>
        <mxCell id="jrB7JTmj7zLujSxNhgp--32" value="&lt;u&gt;produto&lt;/u&gt;" style="text;html=1;align=center;verticalAlign=middle;resizable=0;points=[];autosize=1;strokeColor=default;fillColor=none;" parent="1" vertex="1">
          <mxGeometry x="604.9200000000001" y="-149" width="60" height="30" as="geometry" />
        </mxCell>
        <mxCell id="jrB7JTmj7zLujSxNhgp--33" value="quantidade" style="text;html=1;align=center;verticalAlign=middle;resizable=0;points=[];autosize=1;strokeColor=default;fillColor=none;" parent="1" vertex="1">
          <mxGeometry x="664.9200000000001" y="-149" width="80" height="30" as="geometry" />
        </mxCell>
        <mxCell id="jrB7JTmj7zLujSxNhgp--38" value="Pessoa" style="text;html=1;align=center;verticalAlign=middle;resizable=0;points=[];autosize=1;strokeColor=none;fillColor=none;" parent="1" vertex="1">
          <mxGeometry x="524.9200000000001" y="-110" width="60" height="30" as="geometry" />
        </mxCell>
        <mxCell id="jrB7JTmj7zLujSxNhgp--39" value="&lt;u&gt;nif&lt;/u&gt;" style="text;html=1;align=center;verticalAlign=middle;resizable=0;points=[];autosize=1;strokeColor=default;fillColor=none;" parent="1" vertex="1">
          <mxGeometry x="524.9200000000001" y="-80" width="40" height="30" as="geometry" />
        </mxCell>
        <mxCell id="jrB7JTmj7zLujSxNhgp--40" value="telefone" style="text;html=1;align=center;verticalAlign=middle;resizable=0;points=[];autosize=1;strokeColor=default;fillColor=none;" parent="1" vertex="1">
          <mxGeometry x="664.9200000000001" y="-80" width="70" height="30" as="geometry" />
        </mxCell>
        <mxCell id="jrB7JTmj7zLujSxNhgp--41" value="email" style="text;html=1;align=center;verticalAlign=middle;resizable=0;points=[];autosize=1;strokeColor=default;fillColor=none;" parent="1" vertex="1">
          <mxGeometry x="614.9200000000001" y="-80" width="50" height="30" as="geometry" />
        </mxCell>
        <mxCell id="jrB7JTmj7zLujSxNhgp--42" value="nome" style="text;html=1;align=center;verticalAlign=middle;resizable=0;points=[];autosize=1;strokeColor=default;fillColor=none;" parent="1" vertex="1">
          <mxGeometry x="564.9200000000001" y="-80" width="50" height="30" as="geometry" />
        </mxCell>
        <mxCell id="jrB7JTmj7zLujSxNhgp--43" value="sexo" style="text;html=1;align=center;verticalAlign=middle;resizable=0;points=[];autosize=1;strokeColor=default;fillColor=none;" parent="1" vertex="1">
          <mxGeometry x="734.9200000000001" y="-80" width="50" height="30" as="geometry" />
        </mxCell>
        <mxCell id="jrB7JTmj7zLujSxNhgp--44" value="rua" style="text;html=1;align=center;verticalAlign=middle;resizable=0;points=[];autosize=1;strokeColor=default;fillColor=none;" parent="1" vertex="1">
          <mxGeometry x="784.9200000000001" y="-80" width="40" height="30" as="geometry" />
        </mxCell>
        <mxCell id="jrB7JTmj7zLujSxNhgp--45" value="cod_postal" style="text;html=1;align=center;verticalAlign=middle;resizable=0;points=[];autosize=1;strokeColor=default;fillColor=none;" parent="1" vertex="1">
          <mxGeometry x="824.9200000000001" y="-80" width="80" height="30" as="geometry" />
        </mxCell>
        <mxCell id="jrB7JTmj7zLujSxNhgp--46" value="localidade" style="text;html=1;align=center;verticalAlign=middle;resizable=0;points=[];autosize=1;strokeColor=default;fillColor=none;" parent="1" vertex="1">
          <mxGeometry x="904.9200000000001" y="-80" width="80" height="30" as="geometry" />
        </mxCell>
        <mxCell id="jrB7JTmj7zLujSxNhgp--47" value="Funcionário" style="text;html=1;align=center;verticalAlign=middle;resizable=0;points=[];autosize=1;strokeColor=none;fillColor=none;" parent="1" vertex="1">
          <mxGeometry x="524.9200000000001" y="82" width="90" height="30" as="geometry" />
        </mxCell>
        <mxCell id="dus9Y1527tjD1eY-dGqj-7" value="" style="edgeStyle=orthogonalEdgeStyle;rounded=0;orthogonalLoop=1;jettySize=auto;html=1;entryX=-0.023;entryY=0.552;entryDx=0;entryDy=0;entryPerimeter=0;" parent="1" source="jrB7JTmj7zLujSxNhgp--48" target="jrB7JTmj7zLujSxNhgp--39" edge="1">
          <mxGeometry relative="1" as="geometry">
            <mxPoint x="444.9200000000001" y="127" as="targetPoint" />
            <Array as="points">
              <mxPoint x="505" y="127" />
              <mxPoint x="505" y="-63" />
            </Array>
          </mxGeometry>
        </mxCell>
        <mxCell id="jrB7JTmj7zLujSxNhgp--48" value="&lt;u&gt;nif&lt;/u&gt;" style="text;html=1;align=center;verticalAlign=middle;resizable=0;points=[];autosize=1;strokeColor=default;fillColor=none;" parent="1" vertex="1">
          <mxGeometry x="524.9200000000001" y="112" width="40" height="30" as="geometry" />
        </mxCell>
        <mxCell id="dus9Y1527tjD1eY-dGqj-16" value="" style="edgeStyle=orthogonalEdgeStyle;rounded=0;orthogonalLoop=1;jettySize=auto;html=1;entryX=0.408;entryY=1.104;entryDx=0;entryDy=0;entryPerimeter=0;" parent="1" source="jrB7JTmj7zLujSxNhgp--52" target="jrB7JTmj7zLujSxNhgp--128" edge="1">
          <mxGeometry relative="1" as="geometry">
            <mxPoint x="724.9200000000001" y="127" as="targetPoint" />
          </mxGeometry>
        </mxCell>
        <mxCell id="jrB7JTmj7zLujSxNhgp--52" value="loja" style="text;html=1;align=center;verticalAlign=middle;resizable=0;points=[];autosize=1;strokeColor=default;fillColor=none;" parent="1" vertex="1">
          <mxGeometry x="564.9200000000001" y="112" width="40" height="30" as="geometry" />
        </mxCell>
        <mxCell id="jrB7JTmj7zLujSxNhgp--54" value="Diretor" style="text;html=1;align=center;verticalAlign=middle;resizable=0;points=[];autosize=1;strokeColor=none;fillColor=none;" parent="1" vertex="1">
          <mxGeometry x="519.9200000000001" y="-57" width="60" height="30" as="geometry" />
        </mxCell>
        <mxCell id="dus9Y1527tjD1eY-dGqj-9" value="" style="edgeStyle=orthogonalEdgeStyle;rounded=0;orthogonalLoop=1;jettySize=auto;html=1;entryX=-0.03;entryY=0.551;entryDx=0;entryDy=0;entryPerimeter=0;" parent="1" source="jrB7JTmj7zLujSxNhgp--55" target="jrB7JTmj7zLujSxNhgp--39" edge="1">
          <mxGeometry relative="1" as="geometry">
            <mxPoint x="449.9200000000001" y="-3" as="targetPoint" />
            <Array as="points">
              <mxPoint x="550" y="10" />
              <mxPoint x="505" y="10" />
              <mxPoint x="505" y="-63" />
            </Array>
          </mxGeometry>
        </mxCell>
        <mxCell id="jrB7JTmj7zLujSxNhgp--55" value="&lt;u&gt;nif&lt;/u&gt;" style="text;html=1;align=center;verticalAlign=middle;resizable=0;points=[];autosize=1;strokeColor=default;fillColor=none;" parent="1" vertex="1">
          <mxGeometry x="529.9200000000001" y="-27" width="40" height="30" as="geometry" />
        </mxCell>
        <mxCell id="jrB7JTmj7zLujSxNhgp--65" value="Contrato" style="text;html=1;align=center;verticalAlign=middle;resizable=0;points=[];autosize=1;strokeColor=none;fillColor=none;" parent="1" vertex="1">
          <mxGeometry x="524.9200000000001" y="160" width="70" height="30" as="geometry" />
        </mxCell>
        <mxCell id="jrB7JTmj7zLujSxNhgp--66" value="&lt;u&gt;id_contrato&lt;/u&gt;" style="text;html=1;align=center;verticalAlign=middle;resizable=0;points=[];autosize=1;strokeColor=default;fillColor=none;" parent="1" vertex="1">
          <mxGeometry x="524.9200000000001" y="190" width="80" height="30" as="geometry" />
        </mxCell>
        <mxCell id="jrB7JTmj7zLujSxNhgp--67" value="data_inicio" style="text;html=1;align=center;verticalAlign=middle;resizable=0;points=[];autosize=1;strokeColor=default;fillColor=none;" parent="1" vertex="1">
          <mxGeometry x="604.9200000000001" y="190" width="80" height="30" as="geometry" />
        </mxCell>
        <mxCell id="jrB7JTmj7zLujSxNhgp--68" value="data_fim" style="text;html=1;align=center;verticalAlign=middle;resizable=0;points=[];autosize=1;strokeColor=default;fillColor=none;" parent="1" vertex="1">
          <mxGeometry x="684.9200000000001" y="190" width="70" height="30" as="geometry" />
        </mxCell>
        <mxCell id="jrB7JTmj7zLujSxNhgp--69" value="Efetivo" style="text;html=1;align=center;verticalAlign=middle;resizable=0;points=[];autosize=1;strokeColor=none;fillColor=none;" parent="1" vertex="1">
          <mxGeometry x="524.9200000000001" y="232" width="60" height="30" as="geometry" />
        </mxCell>
        <mxCell id="jrB7JTmj7zLujSxNhgp--74" value="" style="edgeStyle=orthogonalEdgeStyle;rounded=0;orthogonalLoop=1;jettySize=auto;html=1;entryX=0.002;entryY=0.333;entryDx=0;entryDy=0;entryPerimeter=0;" parent="1" source="jrB7JTmj7zLujSxNhgp--70" target="jrB7JTmj7zLujSxNhgp--48" edge="1">
          <mxGeometry relative="1" as="geometry">
            <mxPoint x="444.9200000000001" y="277" as="targetPoint" />
            <Array as="points">
              <mxPoint x="545" y="302" />
              <mxPoint x="515" y="302" />
              <mxPoint x="515" y="122" />
            </Array>
          </mxGeometry>
        </mxCell>
        <mxCell id="jrB7JTmj7zLujSxNhgp--70" value="&lt;u&gt;nif&lt;/u&gt;" style="text;html=1;align=center;verticalAlign=middle;resizable=0;points=[];autosize=1;strokeColor=default;fillColor=none;" parent="1" vertex="1">
          <mxGeometry x="524.9200000000001" y="262" width="40" height="30" as="geometry" />
        </mxCell>
        <mxCell id="jrB7JTmj7zLujSxNhgp--72" value="" style="edgeStyle=orthogonalEdgeStyle;rounded=0;orthogonalLoop=1;jettySize=auto;html=1;entryX=0.418;entryY=0.978;entryDx=0;entryDy=0;entryPerimeter=0;" parent="1" source="jrB7JTmj7zLujSxNhgp--71" target="jrB7JTmj7zLujSxNhgp--66" edge="1">
          <mxGeometry relative="1" as="geometry" />
        </mxCell>
        <mxCell id="jrB7JTmj7zLujSxNhgp--71" value="contrato" style="text;html=1;align=center;verticalAlign=middle;resizable=0;points=[];autosize=1;strokeColor=default;fillColor=none;" parent="1" vertex="1">
          <mxGeometry x="564.9200000000001" y="262" width="70" height="30" as="geometry" />
        </mxCell>
        <mxCell id="jrB7JTmj7zLujSxNhgp--75" value="Part-Time" style="text;html=1;align=center;verticalAlign=middle;resizable=0;points=[];autosize=1;strokeColor=none;fillColor=none;" parent="1" vertex="1">
          <mxGeometry x="669.9200000000001" y="234" width="80" height="30" as="geometry" />
        </mxCell>
        <mxCell id="jrB7JTmj7zLujSxNhgp--79" value="" style="edgeStyle=orthogonalEdgeStyle;rounded=0;orthogonalLoop=1;jettySize=auto;html=1;entryX=-0.002;entryY=0.333;entryDx=0;entryDy=0;entryPerimeter=0;" parent="1" source="jrB7JTmj7zLujSxNhgp--76" target="jrB7JTmj7zLujSxNhgp--48" edge="1">
          <mxGeometry relative="1" as="geometry">
            <mxPoint x="515" y="122" as="targetPoint" />
            <Array as="points">
              <mxPoint x="690" y="302" />
              <mxPoint x="515" y="302" />
              <mxPoint x="515" y="122" />
            </Array>
          </mxGeometry>
        </mxCell>
        <mxCell id="jrB7JTmj7zLujSxNhgp--76" value="&lt;u&gt;nif&lt;/u&gt;" style="text;html=1;align=center;verticalAlign=middle;resizable=0;points=[];autosize=1;strokeColor=default;fillColor=none;" parent="1" vertex="1">
          <mxGeometry x="669.9200000000001" y="262" width="40" height="30" as="geometry" />
        </mxCell>
        <mxCell id="jrB7JTmj7zLujSxNhgp--77" value="horas_semanais" style="text;html=1;align=center;verticalAlign=middle;resizable=0;points=[];autosize=1;strokeColor=default;fillColor=none;" parent="1" vertex="1">
          <mxGeometry x="709.9200000000001" y="262" width="110" height="30" as="geometry" />
        </mxCell>
        <mxCell id="jrB7JTmj7zLujSxNhgp--119" value="SubEmpresa" style="text;html=1;align=center;verticalAlign=middle;resizable=0;points=[];autosize=1;strokeColor=none;fillColor=none;" parent="1" vertex="1">
          <mxGeometry x="529.9200000000001" y="15" width="90" height="30" as="geometry" />
        </mxCell>
        <mxCell id="jrB7JTmj7zLujSxNhgp--120" value="&lt;u&gt;id&lt;/u&gt;" style="text;html=1;align=center;verticalAlign=middle;resizable=0;points=[];autosize=1;strokeColor=default;fillColor=none;" parent="1" vertex="1">
          <mxGeometry x="529.9200000000001" y="45" width="30" height="30" as="geometry" />
        </mxCell>
        <mxCell id="jrB7JTmj7zLujSxNhgp--121" value="nome" style="text;html=1;align=center;verticalAlign=middle;resizable=0;points=[];autosize=1;strokeColor=default;fillColor=none;" parent="1" vertex="1">
          <mxGeometry x="559.9200000000001" y="45" width="50" height="30" as="geometry" />
        </mxCell>
        <mxCell id="dus9Y1527tjD1eY-dGqj-11" value="" style="edgeStyle=orthogonalEdgeStyle;rounded=0;orthogonalLoop=1;jettySize=auto;html=1;entryX=0.002;entryY=0.567;entryDx=0;entryDy=0;entryPerimeter=0;" parent="1" source="jrB7JTmj7zLujSxNhgp--122" target="jrB7JTmj7zLujSxNhgp--55" edge="1">
          <mxGeometry relative="1" as="geometry">
            <Array as="points">
              <mxPoint x="640" y="80" />
              <mxPoint x="510" y="80" />
              <mxPoint x="510" y="-10" />
            </Array>
          </mxGeometry>
        </mxCell>
        <mxCell id="jrB7JTmj7zLujSxNhgp--122" value="diretor" style="text;html=1;align=center;verticalAlign=middle;resizable=0;points=[];autosize=1;strokeColor=default;fillColor=none;" parent="1" vertex="1">
          <mxGeometry x="609.9200000000001" y="45" width="60" height="30" as="geometry" />
        </mxCell>
        <mxCell id="jrB7JTmj7zLujSxNhgp--127" value="Loja" style="text;html=1;align=center;verticalAlign=middle;resizable=0;points=[];autosize=1;strokeColor=none;fillColor=none;" parent="1" vertex="1">
          <mxGeometry x="694.9200000000001" y="14" width="50" height="30" as="geometry" />
        </mxCell>
        <mxCell id="jrB7JTmj7zLujSxNhgp--128" value="&lt;u&gt;id_loja&lt;/u&gt;" style="text;html=1;align=center;verticalAlign=middle;resizable=0;points=[];autosize=1;strokeColor=default;fillColor=none;" parent="1" vertex="1">
          <mxGeometry x="694.9200000000001" y="44" width="60" height="30" as="geometry" />
        </mxCell>
        <mxCell id="jrB7JTmj7zLujSxNhgp--129" value="rua" style="text;html=1;align=center;verticalAlign=middle;resizable=0;points=[];autosize=1;strokeColor=default;fillColor=none;" parent="1" vertex="1">
          <mxGeometry x="974.9200000000001" y="44" width="40" height="30" as="geometry" />
        </mxCell>
        <mxCell id="jrB7JTmj7zLujSxNhgp--130" value="cod_postal" style="text;html=1;align=center;verticalAlign=middle;resizable=0;points=[];autosize=1;strokeColor=default;fillColor=none;" parent="1" vertex="1">
          <mxGeometry x="1014.9200000000001" y="44" width="80" height="30" as="geometry" />
        </mxCell>
        <mxCell id="jrB7JTmj7zLujSxNhgp--131" value="localidade" style="text;html=1;align=center;verticalAlign=middle;resizable=0;points=[];autosize=1;strokeColor=default;fillColor=none;" parent="1" vertex="1">
          <mxGeometry x="1094.92" y="44" width="80" height="30" as="geometry" />
        </mxCell>
        <mxCell id="jrB7JTmj7zLujSxNhgp--132" value="telefone" style="text;html=1;align=center;verticalAlign=middle;resizable=0;points=[];autosize=1;strokeColor=default;fillColor=none;" parent="1" vertex="1">
          <mxGeometry x="904.9200000000001" y="44" width="70" height="30" as="geometry" />
        </mxCell>
        <mxCell id="dus9Y1527tjD1eY-dGqj-13" value="" style="edgeStyle=orthogonalEdgeStyle;rounded=0;orthogonalLoop=1;jettySize=auto;html=1;entryX=0.465;entryY=0.979;entryDx=0;entryDy=0;entryPerimeter=0;" parent="1" source="jrB7JTmj7zLujSxNhgp--133" target="jrB7JTmj7zLujSxNhgp--120" edge="1">
          <mxGeometry relative="1" as="geometry">
            <mxPoint x="799.9200000000001" y="154" as="targetPoint" />
            <Array as="points">
              <mxPoint x="800" y="90" />
              <mxPoint x="544" y="90" />
            </Array>
          </mxGeometry>
        </mxCell>
        <mxCell id="jrB7JTmj7zLujSxNhgp--133" value="subempresa" style="text;html=1;align=center;verticalAlign=middle;resizable=0;points=[];autosize=1;strokeColor=default;fillColor=none;" parent="1" vertex="1">
          <mxGeometry x="754.9200000000001" y="44" width="90" height="30" as="geometry" />
        </mxCell>
        <mxCell id="vvqg-HQo7EPAwjXL64Jl-2" value="" style="edgeStyle=orthogonalEdgeStyle;rounded=0;orthogonalLoop=1;jettySize=auto;html=1;entryX=0.414;entryY=0.984;entryDx=0;entryDy=0;entryPerimeter=0;" parent="1" source="jrB7JTmj7zLujSxNhgp--134" target="jrB7JTmj7zLujSxNhgp--48" edge="1">
          <mxGeometry relative="1" as="geometry">
            <mxPoint x="874.9200000000001" y="154" as="targetPoint" />
            <Array as="points">
              <mxPoint x="880" y="162" />
              <mxPoint x="542" y="162" />
            </Array>
          </mxGeometry>
        </mxCell>
        <mxCell id="jrB7JTmj7zLujSxNhgp--134" value="gerente" style="text;html=1;align=center;verticalAlign=middle;resizable=0;points=[];autosize=1;strokeColor=default;fillColor=none;" parent="1" vertex="1">
          <mxGeometry x="844.9200000000001" y="44" width="60" height="30" as="geometry" />
        </mxCell>
        <mxCell id="jrB7JTmj7zLujSxNhgp--139" value="&lt;div&gt;Stock_Loja&lt;/div&gt;" style="text;html=1;align=center;verticalAlign=middle;resizable=0;points=[];autosize=1;strokeColor=none;fillColor=none;" parent="1" vertex="1">
          <mxGeometry x="524.92" y="315" width="80" height="30" as="geometry" />
        </mxCell>
        <mxCell id="dus9Y1527tjD1eY-dGqj-18" value="" style="edgeStyle=orthogonalEdgeStyle;rounded=0;orthogonalLoop=1;jettySize=auto;html=1;entryX=0.405;entryY=1.088;entryDx=0;entryDy=0;entryPerimeter=0;" parent="1" source="jrB7JTmj7zLujSxNhgp--140" target="jrB7JTmj7zLujSxNhgp--128" edge="1">
          <mxGeometry relative="1" as="geometry">
            <mxPoint x="544.9200000000001" y="455" as="targetPoint" />
            <Array as="points">
              <mxPoint x="545" y="400" />
              <mxPoint x="850" y="400" />
              <mxPoint x="850" y="120" />
              <mxPoint x="719" y="120" />
            </Array>
          </mxGeometry>
        </mxCell>
        <mxCell id="jrB7JTmj7zLujSxNhgp--140" value="&lt;u&gt;loja&lt;/u&gt;" style="text;html=1;align=center;verticalAlign=middle;resizable=0;points=[];autosize=1;strokeColor=default;fillColor=none;" parent="1" vertex="1">
          <mxGeometry x="524.92" y="345" width="40" height="30" as="geometry" />
        </mxCell>
        <mxCell id="jrB7JTmj7zLujSxNhgp--146" value="" style="edgeStyle=orthogonalEdgeStyle;rounded=0;orthogonalLoop=1;jettySize=auto;html=1;entryX=0.392;entryY=1.016;entryDx=0;entryDy=0;entryPerimeter=0;" parent="1" source="jrB7JTmj7zLujSxNhgp--141" target="jrB7JTmj7zLujSxNhgp--24" edge="1">
          <mxGeometry relative="1" as="geometry">
            <mxPoint x="594.9200000000001" y="528" as="targetPoint" />
            <Array as="points">
              <mxPoint x="595" y="390" />
              <mxPoint x="490" y="390" />
              <mxPoint x="490" y="-170" />
              <mxPoint x="556" y="-170" />
            </Array>
          </mxGeometry>
        </mxCell>
        <mxCell id="jrB7JTmj7zLujSxNhgp--141" value="&lt;u&gt;produto&lt;/u&gt;" style="text;html=1;align=center;verticalAlign=middle;resizable=0;points=[];autosize=1;strokeColor=default;fillColor=none;" parent="1" vertex="1">
          <mxGeometry x="564.92" y="345" width="60" height="30" as="geometry" />
        </mxCell>
        <mxCell id="jrB7JTmj7zLujSxNhgp--142" value="quantidade" style="text;html=1;align=center;verticalAlign=middle;resizable=0;points=[];autosize=1;strokeColor=default;fillColor=none;" parent="1" vertex="1">
          <mxGeometry x="624.92" y="345" width="80" height="30" as="geometry" />
        </mxCell>
        <mxCell id="dus9Y1527tjD1eY-dGqj-1" value="salário" style="text;html=1;align=center;verticalAlign=middle;resizable=0;points=[];autosize=1;strokeColor=default;fillColor=none;" parent="1" vertex="1">
          <mxGeometry x="984.9200000000001" y="-80" width="60" height="30" as="geometry" />
        </mxCell>
        <mxCell id="vvqg-HQo7EPAwjXL64Jl-3" value="tipo" style="text;html=1;align=center;verticalAlign=middle;resizable=0;points=[];autosize=1;strokeColor=default;fillColor=none;" parent="1" vertex="1">
          <mxGeometry x="1044.92" y="-80" width="40" height="30" as="geometry" />
        </mxCell>
      </root>
    </mxGraphModel>
  </diagram>
</mxfile>
